<svg width="100mm" height="100mm" viewBox="0 0 100 100" xmlns="http://www.w3.org/2000/svg"><style>:root {--fill-color: black;}@media (prefers-color-scheme: dark) {:root {--fill-color: white;}}</style><defs><mask maskUnits="userSpaceOnUse" id="b"><path style="fill:#fff;fill-opacity:1" d="M-1 13.583h73.091v72.834H-1z"/><path style="fill:#fff;fill-opacity:1" d="M-1 13.583h73.091v72.834H-1z"/></mask><mask maskUnits="userSpaceOnUse" id="d"><path style="fill:#fff;fill-opacity:1" d="M-1 13.583h73.091v72.834H-1z"/><path style="fill:#fff;fill-opacity:1" d="M-1 13.583h73.091v72.834H-1z"/></mask><mask maskUnits="userSpaceOnUse" id="a"><path style="fill:#fff;fill-opacity:1" d="M27.908 13.583H101v72.834H27.908z"/><path style="fill:#000;stroke-width:1.314" d="M-43.966 50h162.019v65.808H-43.966z"/></mask><mask maskUnits="userSpaceOnUse" id="c"><path style="fill:#fff;fill-opacity:1" d="M-1 13.583h73.092v72.834H-1z"/><path style="fill:#000;stroke-width:1.314" d="M-37.107-37.488H77.268V50H-37.107z"/></mask><mask maskUnits="userSpaceOnUse" id="e"><path style="fill:#fff;fill-opacity:1" d="M7.204 7.333h85.592v85.334H7.204z"/><g><ellipse style="fill:#000;fill-opacity:1;stroke:none;stroke-width:1.892;stroke-dasharray:none;stroke-opacity:1" ry="20.833" rx="21.092" cy="50" cx="50"/><g mask="url(#a)"><path style="fill:none;fill-opacity:1;stroke:#000;stroke-width:3.24539;stroke-dasharray:none;stroke-opacity:1" mask="url(#b)" d="M69.469 50a33.923 33.794 0 0 1-33.923 33.794A33.923 33.794 0 0 1 1.623 50a33.923 33.794 0 0 1 33.923-33.794A33.923 33.794 0 0 1 69.469 50z" transform="translate(28.908)"/></g><g mask="url(#c)"><path style="display:inline;fill:none;fill-opacity:1;stroke:#000;stroke-width:3.24539;stroke-dasharray:none;stroke-opacity:1" mask="url(#d)" d="M69.469 50a33.923 33.794 0 0 1-33.923 33.794A33.923 33.794 0 0 1 1.623 50a33.923 33.794 0 0 1 33.923-33.794A33.923 33.794 0 0 1 69.469 50z" transform="rotate(180 35.546 50)"/></g></g></mask></defs><path style="display:inline;opacity:1;fill:var(--fill-color);fill-opacity:1;stroke:none;stroke-width:1.892;stroke-dasharray:none;stroke-opacity:1" mask="url(#e)" d="M91.796 50A41.796 41.667 0 0 1 50 91.667 41.796 41.667 0 0 1 8.204 50 41.796 41.667 0 0 1 50 8.333 41.796 41.667 0 0 1 91.796 50z"/></svg>
